<?xml version="1.0" standalone="no"?>
<!DOCTYPE svg PUBLIC "-//W3C//DTD SVG 20010904//EN"
 "http://www.w3.org/TR/2001/REC-SVG-20010904/DTD/svg10.dtd">
<svg version="1.0" xmlns="http://www.w3.org/2000/svg"
 width="119.000000pt" height="128.000000pt" viewBox="0 0 119.000000 128.000000"
 preserveAspectRatio="xMidYMid meet">
<metadata>
Created by potrace 1.15, written by Peter Selinger 2001-2017
</metadata>
<g transform="translate(0.000000,128.000000) scale(0.100000,-0.100000)"
fill="#af5340" stroke="none">
<path d="M538 1188 c-9 -14 -14 -35 -11 -47 4 -14 -12 -51 -47 -113 -30 -51
-118 -219 -198 -373 -79 -154 -164 -310 -188 -346 -24 -37 -44 -72 -44 -79 0
-7 9 -44 21 -83 l21 -70 18 30 c49 81 150 134 305 160 122 20 404 12 574 -17
68 -11 125 -19 126 -18 1 2 11 18 22 37 l21 34 -88 118 c-120 160 -203 280
-300 433 -71 112 -81 134 -77 162 5 32 5 33 -21 22 -45 -19 -52 -29 -52 -67 0
-47 52 -138 224 -396 74 -110 133 -201 132 -202 -1 -1 -58 2 -126 8 -151 13
-492 -3 -573 -27 -12 -4 27 83 132 293 222 443 230 470 173 534 l-28 31 -16
-24z"/>
</g>
</svg>
